<svg width="50" height="50" viewBox="0 0 50 50" fill="none" xmlns="http://www.w3.org/2000/svg">
<circle cx="25" cy="25" r="25" fill="#162A41"/>
<g clip-path="url(#clip0_179:288)">
<path d="M21.75 30.6121V35.2501C21.75 35.5741 21.958 35.8611 22.266 35.9631C22.343 35.9881 22.422 36.0001 22.5 36.0001C22.734 36.0001 22.96 35.8901 23.104 35.6941L25.817 32.0021L21.75 30.6121Z" fill="white"/>
<path d="M36.6851 13.1388C36.4551 12.9758 36.1531 12.9538 35.9031 13.0848L13.403 24.8348C13.137 24.9738 12.98 25.2578 13.002 25.5568C13.025 25.8568 13.224 26.1128 13.507 26.2098L19.762 28.3478L33.0831 16.9578L22.775 29.3768L33.2581 32.9598C33.3361 32.9858 33.4181 32.9998 33.5001 32.9998C33.6361 32.9998 33.7711 32.9628 33.8901 32.8908C34.0801 32.7748 34.2091 32.5798 34.2421 32.3608L36.9921 13.8608C37.0331 13.5808 36.9151 13.3028 36.6851 13.1388Z" fill="white"/>
</g>
<defs>
<clipPath id="clip0_179:288">
<rect width="24" height="24" fill="white" transform="translate(13 13)"/>
</clipPath>
</defs>
</svg>
