<svg width="21" height="17" viewBox="0 0 21 17" fill="none" xmlns="http://www.w3.org/2000/svg">
<path d="M20.6021 5.42844C20.7621 5.29573 21 5.41988 21 5.62966V14.3845C21 15.519 20.1182 16.4395 19.0312 16.4395H1.96875C0.881836 16.4395 0 15.519 0 14.3845V5.63394C0 5.41988 0.233789 5.30001 0.397852 5.43273C1.3166 6.17764 2.53477 7.12376 6.71836 10.2961C7.58379 10.9554 9.04395 12.3424 10.5 12.3339C11.9643 12.3467 13.4531 10.9297 14.2857 10.2961C18.4693 7.12376 19.6834 6.17336 20.6021 5.42844ZM10.5 10.9596C11.4516 10.9768 12.8215 9.70955 13.5105 9.18726C18.9533 5.06455 19.3676 4.70494 20.6227 3.67747C20.8605 3.48482 21 3.18514 21 2.86834V2.05493C21 0.920438 20.1182 0 19.0312 0H1.96875C0.881836 0 0 0.920438 0 2.05493V2.86834C0 3.18514 0.139453 3.48054 0.377344 3.67747C1.63242 4.70066 2.04668 5.06455 7.48945 9.18726C8.17852 9.70955 9.54844 10.9768 10.5 10.9596Z" fill="#2A2C30"/>
</svg>
