<svg width="44" height="39" viewBox="0 0 44 39" fill="none" xmlns="http://www.w3.org/2000/svg">
<path d="M38.135 1.54785H5.84412C3.16906 1.54785 1.00049 3.71642 1.00049 6.39149V32.2242C1.00049 34.8993 3.16906 37.0679 5.84412 37.0679H38.135C40.8101 37.0679 42.9787 34.8993 42.9787 32.2242V6.39149C42.9787 3.71642 40.8101 1.54785 38.135 1.54785Z" stroke="#7B7B7B" stroke-width="2" stroke-linejoin="round"/>
<path d="M30.0621 14.464C31.8455 14.464 33.2912 13.0183 33.2912 11.235C33.2912 9.45157 31.8455 8.00586 30.0621 8.00586C28.2787 8.00586 26.833 9.45157 26.833 11.235C26.833 13.0183 28.2787 14.464 30.0621 14.464Z" stroke="#7B7B7B" stroke-width="2" stroke-miterlimit="10"/>
<path d="M18.76 37.0675L31.2061 24.6214C31.7753 24.051 32.5372 23.7141 33.3421 23.6768C34.147 23.6394 34.9368 23.9044 35.5563 24.4195L42.9782 30.6093M26.8327 27.359L17.6843 18.2278C17.1022 17.6457 16.3197 17.308 15.4969 17.2836C14.6741 17.2593 13.873 17.55 13.2574 18.0966L1 28.9948L26.8327 27.359Z" stroke="#7B7B7B" stroke-width="2" stroke-linecap="round" stroke-linejoin="round"/>
</svg>
