<svg width="16" height="17" viewBox="0 0 16 17" fill="none" xmlns="http://www.w3.org/2000/svg">
<path d="M3.58143 16.4395H0.264286V5.46367H3.58143V16.4395ZM1.92107 3.96647C0.860357 3.96647 0 3.06375 0 1.97388C7.59214e-09 1.45037 0.202398 0.94831 0.562669 0.578136C0.92294 0.207962 1.41157 0 1.92107 0C2.43057 0 2.9192 0.207962 3.27947 0.578136C3.63974 0.94831 3.84214 1.45037 3.84214 1.97388C3.84214 3.06375 2.98143 3.96647 1.92107 3.96647ZM15.9964 16.4395H12.6864V11.0965C12.6864 9.82316 12.6614 8.19019 10.9618 8.19019C9.23714 8.19019 8.97286 9.57363 8.97286 11.0048V16.4395H5.65929V5.46367H8.84071V6.96087H8.88714C9.33 6.09851 10.4118 5.18845 12.0257 5.18845C15.3829 5.18845 16 7.45994 16 10.4103V16.4395H15.9964Z" fill="#2A2C30"/>
</svg>
