<svg width="50" height="50" viewBox="0 0 50 50" fill="none" xmlns="http://www.w3.org/2000/svg">
<circle cx="25" cy="25" r="25" fill="#162A41"/>
<g clip-path="url(#clip0_179:258)">
<path d="M35.0742 28.7533C33.6049 28.7533 32.1621 28.5234 30.7949 28.0716C30.125 27.8431 29.3014 28.0528 28.8926 28.4727L26.194 30.5098C23.0644 28.8393 21.1367 26.9121 19.4889 23.8061L21.4661 21.1778C21.9798 20.6648 22.1641 19.9154 21.9433 19.2123C21.4896 17.8379 21.2591 16.3959 21.2591 14.9259C21.2591 13.8639 20.3952 13 19.3333 13H14.9258C13.8639 13 13 13.8639 13 14.9258C13 27.0977 22.9024 37 35.0742 37C36.1361 37 37.0001 36.1361 37.0001 35.0742V30.679C37 29.6172 36.1361 28.7533 35.0742 28.7533Z" fill="white"/>
</g>
<defs>
<clipPath id="clip0_179:258">
<rect width="24" height="24" fill="white" transform="translate(13 13)"/>
</clipPath>
</defs>
</svg>
