<svg width="40" height="39" viewBox="0 0 40 39" fill="none" xmlns="http://www.w3.org/2000/svg">
<path d="M10.569 24.5607L2.6005 28.1364C0.904652 28.9072 0.904652 30.1695 2.6005 30.9403L16.861 37.4443C18.4884 38.1852 21.1671 38.1852 22.7945 37.4443L37.055 30.9403C38.7509 30.1695 38.7509 28.9072 37.055 28.1364L29.3524 24.4296M37.0473 8.09653L22.6558 1.53477C21.0958 0.821744 18.5424 0.821744 16.9824 1.53477L2.6005 8.09653C0.904652 8.86737 0.904652 10.1287 2.6005 10.8995L16.861 17.4034C18.4884 18.1454 21.1671 18.1454 22.7945 17.4034L37.055 10.8995C38.7432 10.1287 38.7432 8.86641 37.0473 8.09653Z" stroke="#7B7B7B" stroke-width="2" stroke-linecap="round" stroke-linejoin="round"/>
<path d="M10.5694 14.5356L2.59122 18.1162C0.895375 18.887 0.895375 20.1493 2.59122 20.9201L16.8517 27.4231C18.4792 28.165 21.1578 28.165 22.7853 27.4231L37.0458 20.9201C38.7512 20.1493 38.7512 18.887 37.0554 18.1162L29.0695 14.5356" stroke="#7B7B7B" stroke-width="2" stroke-linecap="round" stroke-linejoin="round"/>
</svg>
