<svg width="134" height="40" viewBox="0 0 134 40" fill="none" xmlns="http://www.w3.org/2000/svg">
<rect width="134" height="40" fill="#162A41"/>
<path d="M109.517 21.721C109.517 23.9866 107.33 25.0357 105.232 25.0357C102.72 25.0357 100.622 23.9196 100.622 22.5469C100.622 21.933 100.968 21.375 101.749 21.375C102.944 21.375 103.055 23.0937 105.12 23.0937C106.102 23.0937 106.738 22.6585 106.738 22.0893C106.738 21.375 106.124 21.2634 105.131 21.0179L103.502 20.6161C101.872 20.2254 100.622 19.5558 100.622 17.6808C100.622 15.4152 102.866 14.5781 104.796 14.5781C106.906 14.5781 109.037 15.4152 109.037 16.6987C109.037 17.346 108.602 17.9152 107.877 17.9152C106.794 17.9152 106.761 16.6317 105.008 16.6317C104.026 16.6317 103.401 16.8996 103.401 17.4911C103.401 18.1384 104.037 18.2835 104.886 18.4844L106.046 18.7522C107.631 19.1094 109.517 19.779 109.517 21.721ZM113.569 24.1429C113.569 23.1607 113.234 22.2567 112.676 21.5312C112.787 20.9955 112.854 20.4263 112.854 19.8571C112.854 15.5156 109.339 12 104.997 12C104.428 12 103.859 12.067 103.323 12.1786C102.598 11.6205 101.694 11.2857 100.711 11.2857C98.3454 11.2857 96.4258 13.2054 96.4258 15.5714C96.4258 16.5536 96.7606 17.4576 97.3186 18.183C97.207 18.7187 97.1401 19.2879 97.1401 19.8571C97.1401 24.1987 100.656 27.7143 104.997 27.7143C105.566 27.7143 106.136 27.6473 106.671 27.5357C107.397 28.0938 108.301 28.4286 109.283 28.4286C111.649 28.4286 113.569 26.5089 113.569 24.1429Z" fill="white"/>
<path d="M62.3209 16.8326H58.6378V27.8929H62.3209V16.8326ZM62.5552 13.4174C62.5441 12.3348 61.7628 11.5089 60.5017 11.5089C59.2517 11.5089 58.4258 12.3348 58.4258 13.4174C58.4258 14.4777 59.2182 15.3259 60.457 15.3259H60.4794C61.7628 15.3259 62.5664 14.4777 62.5552 13.4174ZM75.5686 21.5536C75.5686 18.1607 73.7606 16.5759 71.3387 16.5759C69.3521 16.5759 68.4816 17.6808 68.0017 18.4397H68.024V16.8326H64.3521C64.3521 16.8326 64.3968 17.8705 64.3521 27.8929H68.024V21.721C68.024 21.3862 68.0575 21.0625 68.1468 20.817C68.4146 20.1585 69.0173 19.4777 70.0329 19.4777C71.3611 19.4777 71.8968 20.4933 71.8968 21.9777V27.8929H75.5686V21.5536Z" fill="white"/>
<path d="M31.8544 19.8571C31.8544 21.4308 30.5709 22.7143 28.9972 22.7143C27.4235 22.7143 26.1401 21.4308 26.1401 19.8571C26.1401 18.2835 27.4235 17 28.9972 17C30.5709 17 31.8544 18.2835 31.8544 19.8571ZM33.3945 19.8571C33.3945 17.4241 31.4302 15.4598 28.9972 15.4598C26.5642 15.4598 24.5999 17.4241 24.5999 19.8571C24.5999 22.2902 26.5642 24.2545 28.9972 24.2545C31.4302 24.2545 33.3945 22.2902 33.3945 19.8571ZM34.5999 15.2812C34.5999 14.7121 34.1423 14.2545 33.5731 14.2545C33.0039 14.2545 32.5463 14.7121 32.5463 15.2812C32.5463 15.8504 33.0039 16.308 33.5731 16.308C34.1423 16.308 34.5999 15.8504 34.5999 15.2812ZM28.9972 12.8259C30.2472 12.8259 32.9258 12.7254 34.053 13.1719C34.4436 13.3281 34.7338 13.5179 35.0352 13.8192C35.3365 14.1205 35.5262 14.4107 35.6825 14.8013C36.1289 15.9286 36.0285 18.6071 36.0285 19.8571C36.0285 21.1071 36.1289 23.7857 35.6825 24.9129C35.5262 25.3036 35.3365 25.5938 35.0352 25.8951C34.7338 26.1964 34.4436 26.3862 34.053 26.5424C32.9258 26.9888 30.2472 26.8884 28.9972 26.8884C27.7472 26.8884 25.0686 26.9888 23.9414 26.5424C23.5508 26.3862 23.2606 26.1964 22.9593 25.8951C22.6579 25.5938 22.4682 25.3036 22.3119 24.9129C21.8655 23.7857 21.966 21.1071 21.966 19.8571C21.966 18.6071 21.8655 15.9286 22.3119 14.8013C22.4682 14.4107 22.6579 14.1205 22.9593 13.8192C23.2606 13.5179 23.5508 13.3281 23.9414 13.1719C25.0686 12.7254 27.7472 12.8259 28.9972 12.8259ZM37.5686 19.8571C37.5686 18.6741 37.5798 17.5022 37.5128 16.3192C37.4459 14.9464 37.1334 13.7299 36.1289 12.7254C35.1244 11.721 33.9079 11.4085 32.5352 11.3415C31.3521 11.2746 30.1802 11.2857 28.9972 11.2857C27.8142 11.2857 26.6423 11.2746 25.4593 11.3415C24.0865 11.4085 22.87 11.721 21.8655 12.7254C20.861 13.7299 20.5485 14.9464 20.4816 16.3192C20.4146 17.5022 20.4258 18.6741 20.4258 19.8571C20.4258 21.0402 20.4146 22.2121 20.4816 23.3951C20.5485 24.7679 20.861 25.9844 21.8655 26.9888C22.87 27.9933 24.0865 28.3058 25.4593 28.3728C26.6423 28.4397 27.8142 28.4286 28.9972 28.4286C30.1802 28.4286 31.3521 28.4397 32.5352 28.3728C33.9079 28.3058 35.1244 27.9933 36.1289 26.9888C37.1334 25.9844 37.4459 24.7679 37.5128 23.3951C37.5798 22.2121 37.5686 21.0402 37.5686 19.8571Z" fill="white"/>
</svg>
