<svg width="28" height="38" viewBox="0 0 28 38" fill="none" xmlns="http://www.w3.org/2000/svg">
<path d="M13.9762 1.47998C7.18776 1.47998 1.68018 6.722 1.68018 13.1783C1.68018 20.6071 9.87751 32.3796 12.8875 36.4459C13.0124 36.6175 13.1762 36.7572 13.3654 36.8535C13.5546 36.9498 13.7639 37 13.9762 37C14.1885 37 14.3978 36.9498 14.587 36.8535C14.7762 36.7572 14.9399 36.6175 15.0649 36.4459C18.0748 32.3814 26.2722 20.6131 26.2722 13.1783C26.2722 6.722 20.7646 1.47998 13.9762 1.47998Z" stroke="#7B7B7B" stroke-width="2" stroke-linecap="round" stroke-linejoin="round"/>
<path d="M13.9766 17.8743C16.2402 17.8743 18.0753 16.0393 18.0753 13.7757C18.0753 11.512 16.2402 9.677 13.9766 9.677C11.713 9.677 9.87793 11.512 9.87793 13.7757C9.87793 16.0393 11.713 17.8743 13.9766 17.8743Z" stroke="#7B7B7B" stroke-width="2" stroke-linecap="round" stroke-linejoin="round"/>
</svg>
